<svg width="10" height="10" viewBox="0 0 10 10" fill="none" xmlns="http://www.w3.org/2000/svg">
<path id="Vector" d="M9.49643 1.51071C9.77454 1.2326 9.77454 0.781686 9.49643 0.503571C9.21831 0.225456 8.7674 0.225457 8.48929 0.503571L5 3.99286L1.51071 0.503571C1.2326 0.225456 0.781686 0.225456 0.503571 0.503571C0.225456 0.781686 0.225457 1.2326 0.503571 1.51071L3.99286 5L0.503571 8.48929C0.225456 8.7674 0.225456 9.21831 0.503571 9.49643C0.781686 9.77454 1.2326 9.77454 1.51071 9.49643L5 6.00714L8.48929 9.49643C8.7674 9.77454 9.21831 9.77454 9.49643 9.49643C9.77454 9.21831 9.77454 8.7674 9.49643 8.48929L6.00714 5L9.49643 1.51071Z" fill="#333333"/>
</svg>
