<svg width="22" height="30" viewBox="0 0 22 30" fill="none" xmlns="http://www.w3.org/2000/svg">
<path d="M21.7229 14.5316C21.637 14.4844 21.5401 14.4497 21.4372 14.4291L21.412 14.4141L21.3582 14.384L21.2376 14.3234C21.0317 14.2297 20.8146 14.1505 20.5892 14.0871C18.9666 13.582 17.5717 12.7364 16.5711 11.6512C14.2673 9.01124 12.8832 5.97815 12.546 2.83081C12.4636 2.37849 12.4116 1.91899 12.3716 1.45542L12.3368 1.10779L12.3195 0.933747C12.3192 0.789392 12.2844 0.646251 12.2168 0.511154C12.123 0.334047 11.9495 0.187341 11.7265 0.0966592C11.528 0.0155488 11.3002 -0.0157165 11.0763 0.00742868C10.8525 0.0305739 10.6444 0.106917 10.4824 0.225311C10.2737 0.375649 10.1496 0.580354 10.1355 0.79737L10.1147 0.989498L10.0768 1.33935C9.98975 2.27466 9.83804 3.20593 9.62229 4.12939C9.23945 5.91979 8.55071 7.6655 7.57316 9.32324C6.75619 10.765 5.50721 12.0454 3.92369 13.0644C3.58792 13.2739 3.22575 13.4582 2.84235 13.6148C2.21138 13.8853 0.995336 14.1672 0.334137 14.4157L0.129194 14.7298C0.0183446 14.8541 -0.0234693 15.006 0.0126902 15.1531C0.102711 15.364 0.245851 15.56 0.434309 15.7302L0.931067 15.9297C1.3159 16.0282 1.74124 16.137 2.20396 16.2555C2.31899 16.2853 2.44128 16.3139 2.54614 16.3501C2.61601 16.3704 2.68257 16.3967 2.74453 16.4284L2.81133 16.4586L3.09101 16.5838C3.52878 16.7802 3.94158 17.0065 4.32419 17.2598C5.31442 17.9401 6.15394 18.7349 6.81108 19.6141C8.40548 21.8063 9.44551 24.2018 9.87846 26.6791C9.99947 27.3451 10.1228 28.0138 10.184 28.6854L10.2418 29.1869C10.2472 29.2815 10.2659 29.3754 10.2976 29.467C10.3369 29.5782 10.4111 29.6807 10.5141 29.7657C10.6171 29.8508 10.7459 29.916 10.8894 29.9558C11.033 29.9956 11.1872 30.0088 11.339 29.9943C11.4908 29.9798 11.6357 29.9381 11.7616 29.8727C11.8923 29.8033 11.9984 29.7108 12.0706 29.6035C12.1364 29.5062 12.1757 29.4001 12.1863 29.2913L12.1942 29.2092L12.206 29.0845L12.2994 28.0931C12.438 26.8461 12.6933 25.6079 13.0632 24.3877C13.558 22.6261 14.4267 20.9359 15.6358 19.3818C16.5791 18.1311 17.9305 17.0817 19.5625 16.3326C20.6586 15.8781 21.33 15.7894 21.4388 15.6852C21.5061 15.6419 21.6428 15.2213 21.4342 15.3797C21.353 15.4295 21.3439 15.4671 21.4961 15.4608C21.5931 15.4435 21.6831 15.4091 21.7587 15.3603C21.8344 15.3116 21.8934 15.25 21.931 15.1806C21.9731 15.1115 21.9963 15.0368 21.9993 14.9608C22.0045 14.8776 21.982 14.7947 21.9337 14.7198C21.8854 14.6448 21.813 14.5801 21.7229 14.5316Z" fill="#080808"/>
</svg>
