<svg width="28" height="16" viewBox="0 0 28 16" fill="none" xmlns="http://www.w3.org/2000/svg">
<path d="M8.04071 15.4897C8.13444 15.3889 8.20884 15.269 8.2596 15.137C8.31037 15.0049 8.33651 14.8632 8.33651 14.7201C8.33651 14.577 8.31037 14.4354 8.2596 14.3033C8.20884 14.1712 8.13444 14.0513 8.04071 13.9506L3.44071 8.96463L26.9807 8.96463C27.2459 8.96463 27.5003 8.85044 27.6878 8.64717C27.8754 8.4439 27.9807 8.16821 27.9807 7.88074C27.9807 7.59327 27.8754 7.31758 27.6878 7.11431C27.5003 6.91104 27.2459 6.79684 26.9807 6.79684L3.46071 6.79684L8.04071 1.84344C8.22696 1.64036 8.3315 1.36564 8.3315 1.07929C8.3315 0.792942 8.22696 0.518227 8.04071 0.315145C7.85335 0.113269 7.5999 -4.3869e-05 7.33571 -4.3869e-05C7.07153 -4.3869e-05 6.81808 0.113269 6.63071 0.315145L0.270712 7.20872C0.18511 7.29774 0.116999 7.4046 0.0704689 7.52288C0.0239391 7.64116 -4.57764e-05 7.76842 -4.57764e-05 7.897C-4.57764e-05 8.02558 0.0239391 8.15283 0.0704689 8.27111C0.116999 8.38939 0.18511 8.49625 0.270712 8.58527L6.62071 15.4897C6.71367 15.5913 6.82428 15.6719 6.94614 15.7269C7.068 15.782 7.1987 15.8103 7.33071 15.8103C7.46272 15.8103 7.59343 15.782 7.71529 15.7269C7.83715 15.6719 7.94775 15.5913 8.04071 15.4897Z" fill="#080808"/>
</svg>
