<svg width="28" height="28" viewBox="0 0 28 28" fill="none" xmlns="http://www.w3.org/2000/svg">
<path id="Vector" d="M5.76264 14C5.76264 13.6135 6.076 13.3437 6.46264 13.3437H19.8102L14.6542 8.31731C14.3766 8.04792 14.3701 7.59369 14.6391 7.31664C14.7765 7.175 14.959 7.09844 15.1415 7.09844C15.3172 7.09844 15.4933 7.16144 15.6289 7.29334L22.0236 13.499C22.1597 13.6309 22.2362 13.8112 22.2362 14.0007C22.2362 14.1901 22.1597 14.3709 22.0236 14.5028L15.6289 20.7091C15.3524 20.978 14.9088 20.9717 14.6391 20.6939C14.3701 20.4167 14.3766 19.9513 14.6542 19.682L19.8102 14.6562H6.46275C6.07611 14.6562 5.76264 14.3865 5.76264 14ZM0 14C0 21.7195 6.28053 28 14 28C21.7195 28 28 21.7195 28 14C28 6.28053 21.7195 0 14 0C6.28053 0 0 6.28053 0 14ZM1.4 14C1.4 7.05239 7.05239 1.4 14 1.4C20.9476 1.4 26.6 7.05239 26.6 14C26.6 20.9476 20.9476 26.6 14 26.6C7.05239 26.6 1.4 20.9476 1.4 14Z" fill="black"/>
</svg>
